<svg xmlns="http://www.w3.org/2000/svg" version="1.1" xmlns:xlink="http://www.w3.org/1999/xlink" xmlns:svgjs="http://svgjs.dev/svgjs" width="2000" height="2000" viewBox="0 0 2000 2000"><g transform="matrix(1,0,0,1,-0.9999999999998863,-0.9999999999998863)"><svg viewBox="0 0 280 280" data-background-color="#ffffff" preserveAspectRatio="xMidYMid meet" height="2000" width="2000" xmlns="http://www.w3.org/2000/svg" xmlns:xlink="http://www.w3.org/1999/xlink"><g id="tight-bounds" transform="matrix(1,0,0,1,0.13999999999998636,0.13999999999998636)"><svg viewBox="0 0 279.72 279.72" height="279.72" width="279.72"><g><svg viewBox="0 0 279.72 279.72" height="279.72" width="279.72"><g><svg viewBox="0 0 279.72 279.72" height="279.72" width="279.72"><g id="textblocktransform"><svg viewBox="0 0 279.72 279.72" height="279.72" width="279.72" id="textblock"><g><svg viewBox="0 0 279.72 279.72" height="279.72" width="279.72"><g transform="matrix(1,0,0,1,73.92936372216631,73.92936372216631)"><svg viewBox="0 0 131.8612725556674 131.8612725556674" height="131.8612725556674" width="131.8612725556674"><g id="icon-0"><svg xmlns="http://www.w3.org/2000/svg" xmlns:xlink="http://www.w3.org/1999/xlink" version="1.1" x="0" y="0" viewBox="3.39 3.39 93.22 93.22" enable-background="new 0 0 100 100" xml:space="preserve" height="131.8612725556674" width="131.8612725556674" class="icon-jxe-0" data-fill-palette-color="accent" id="jxe-0"><g fill="#47d063" data-fill-palette-color="accent"><path d="M50.001 3.39C24.258 3.39 3.39 24.258 3.39 50 3.39 75.741 24.258 96.61 50.001 96.61 75.742 96.61 96.61 75.741 96.61 50 96.61 24.258 75.742 3.39 50.001 3.39M81.437 48.742A4.17 4.17 0 0 1 78.294 50.165 4.16 4.16 0 0 1 75.543 49.129L72.484 46.447V70.198A2.627 2.627 0 0 1 69.857 72.825H30.143A2.627 2.627 0 0 1 27.517 70.198V46.447L24.457 49.129A4.176 4.176 0 1 1 18.951 42.848L47.247 18.035A4.18 4.18 0 0 1 52.754 18.035L81.05 42.849A4.177 4.177 0 0 1 81.437 48.742" fill="#47d063" data-fill-palette-color="accent"></path><path d="M60.141 55.547C60.141 50.093 56.335 48.872 52.097 48.015L51.713 47.937V38.947L52.359 39.19C53.625 39.667 54.506 40.514 54.977 41.71L54.992 41.74C55.27 42.367 55.305 42.367 55.471 42.367 55.527 42.367 55.588 42.361 55.658 42.349L58.693 41.876C58.866 41.849 59.099 41.779 59.22 41.604 59.31 41.473 59.331 41.292 59.283 41.068 58.598 38.002 56.258 36.266 52.135 35.767L51.713 35.716V33.226A0.717 0.717 0 0 0 50.997 32.509H48.45A0.72 0.72 0 0 0 47.733 33.226V35.692L47.311 35.741C42.366 36.312 39.859 38.893 39.859 43.413 39.859 48.757 43.732 50.096 47.363 50.93L47.733 51.015V60.01L47.181 59.923C44.926 59.567 43.312 58.748 41.887 58.027L41.413 57.789A0.94 0.94 0 0 0 41.004 57.671C40.787 57.671 40.652 57.854 40.603 58.213L40.329 60.607C40.22 61.268 40.504 61.485 40.795 61.613 42.673 62.569 44.853 63.165 47.3 63.393L47.734 63.433V65.553C47.734 65.948 48.055 66.27 48.451 66.27H50.998A0.717 0.717 0 0 0 51.714 65.553V63.424L52.141 63.376C57.523 62.787 60.141 60.226 60.141 55.547M47.733 47.067L47.082 46.813C45.158 46.061 44.223 44.859 44.223 43.136 44.223 41.124 45.248 39.685 47.109 39.081L47.734 38.878zM51.713 51.891L52.341 52.099C53.799 52.578 55.737 53.493 55.737 55.863 55.737 58.118 54.641 59.394 52.288 59.88L51.713 59.998z" fill="#47d063" data-fill-palette-color="accent"></path></g></svg></g></svg></g><g id="text-0"><path d="M34.227 89.367l3.345 1.221-8.017 21.965-3.345-1.221-0.007 0.019-14.515-20.834-4.997 13.691-3.345-1.221 8.017-21.965 3.345 1.221 14.519 20.824z" fill="#556970" data-fill-palette-color="primary"></path><path d="M53.652 61.305l2.853 2.132-11.992 16.044-22.348-16.704 11.992-16.044 2.853 2.132-7.388 9.884 6.911 5.165 5.71-7.638 2.836 2.12-5.709 7.639 6.895 5.153z" fill="#556970" data-fill-palette-color="primary"></path><path d="M79.833 34.822v0c0.701 0.978 1.195 1.93 1.48 2.854 0.286 0.924 0.403 1.818 0.351 2.681-0.057 0.867-0.257 1.702-0.599 2.504-0.347 0.805-0.801 1.576-1.361 2.313-0.564 0.731-1.214 1.434-1.95 2.109-0.734 0.665-1.517 1.296-2.35 1.892v0c-1.092 0.782-2.158 1.424-3.198 1.924-1.041 0.5-2.092 0.865-3.155 1.095-1.068 0.234-2.177 0.341-3.327 0.323-1.15-0.018-2.382-0.162-3.697-0.431v0l0.875-5.561c0.811 0.515 1.694 0.897 2.649 1.145 0.961 0.244 1.903 0.367 2.828 0.367 0.934 0.002 1.82-0.11 2.657-0.333 0.847-0.222 1.562-0.543 2.146-0.962v0c0.697-0.5 1.314-1.015 1.85-1.546 0.537-0.54 0.947-1.088 1.229-1.641 0.291-0.552 0.429-1.113 0.413-1.684-0.021-0.566-0.239-1.138-0.653-1.716v0c-0.318-0.443-0.689-0.75-1.113-0.92-0.425-0.17-0.878-0.255-1.36-0.253-0.482 0.002-0.984 0.071-1.507 0.209-0.523 0.138-1.034 0.303-1.533 0.497-0.508 0.193-0.999 0.393-1.472 0.601-0.477 0.203-0.905 0.37-1.284 0.503v0c-0.744 0.263-1.528 0.534-2.35 0.813-0.817 0.275-1.645 0.512-2.484 0.712-0.84 0.209-1.674 0.353-2.502 0.431-0.828 0.078-1.629 0.038-2.404-0.118-0.776-0.147-1.515-0.436-2.216-0.866-0.706-0.426-1.344-1.037-1.914-1.832v0c-0.686-0.957-1.175-1.891-1.468-2.802-0.293-0.911-0.421-1.792-0.385-2.644 0.041-0.856 0.223-1.681 0.544-2.476 0.317-0.791 0.747-1.554 1.293-2.289 0.544-0.725 1.174-1.422 1.889-2.09 0.725-0.667 1.504-1.298 2.336-1.895v0c1.13-0.81 2.235-1.442 3.316-1.898 1.081-0.455 2.153-0.774 3.218-0.956 1.068-0.176 2.123-0.229 3.164-0.157 1.041 0.072 2.09 0.233 3.144 0.484v0l-0.875 5.56c-0.796-0.575-1.635-1.009-2.516-1.302-0.882-0.284-1.754-0.449-2.613-0.495-0.86-0.047-1.673 0.029-2.439 0.226-0.765 0.188-1.426 0.482-1.983 0.881v0c-0.724 0.519-1.357 1.046-1.898 1.581-0.537 0.54-0.941 1.079-1.211 1.616-0.279 0.535-0.403 1.082-0.37 1.64 0.037 0.554 0.259 1.115 0.665 1.683v0c0.325 0.454 0.69 0.774 1.093 0.96 0.403 0.186 0.833 0.283 1.289 0.291 0.462 0.005 0.929-0.056 1.403-0.183 0.479-0.131 0.96-0.287 1.443-0.47 0.479-0.188 0.945-0.383 1.397-0.584 0.449-0.207 0.87-0.378 1.264-0.513v0c0.755-0.271 1.553-0.556 2.394-0.856 0.835-0.296 1.683-0.551 2.543-0.767 0.864-0.21 1.725-0.361 2.584-0.453 0.859-0.092 1.688-0.064 2.488 0.082 0.81 0.148 1.572 0.436 2.288 0.864 0.725 0.429 1.376 1.047 1.954 1.852z" fill="#556970" data-fill-palette-color="primary"></path><path d="M100.981 9.565l7.629 23.113-7.304 2.411-7.628-23.113-7.209 2.379-1.116-3.381 21.73-7.173 1.116 3.382z" fill="#556970" data-fill-palette-color="primary"></path><path d="M133.622 0l2.597 27.779-7.658 0.716-2.596-27.779z" fill="#556970" data-fill-palette-color="primary"></path><path d="M161.843 31.271l-1.682-21.698-6.651 19.835-4.634-1.036 10.72-26.192 6.863 1.534 1.721 22.207 11.1-19.342 6.863 1.534-2.231 28.09-7.642-1.708 2.173-20.284-9.737 18.594z" fill="#556970" data-fill-palette-color="primary"></path><path d="M224.206 45.879v0l-0.206 0.306c-0.626 0.885-1.346 1.756-2.16 2.611-0.81 0.85-1.692 1.656-2.644 2.419-0.947 0.766-1.947 1.481-2.999 2.143-1.053 0.663-2.128 1.251-3.226 1.764-1.101 0.519-2.206 0.954-3.315 1.307-1.11 0.353-2.188 0.594-3.237 0.724v0l-1.465-2.99c0.798-0.378 1.599-0.837 2.402-1.379 0.804-0.542 1.604-1.138 2.401-1.788 0.797-0.651 1.571-1.345 2.322-2.082 0.751-0.737 1.47-1.492 2.156-2.265 0.683-0.767 1.331-1.542 1.944-2.324 0.609-0.777 1.162-1.535 1.658-2.275v0c0.389-0.58 0.827-1.239 1.315-1.977 0.487-0.738 0.945-1.516 1.373-2.333 0.434-0.814 0.803-1.644 1.106-2.49 0.307-0.851 0.472-1.682 0.494-2.491 0.019-0.804-0.136-1.569-0.466-2.295-0.334-0.72-0.92-1.362-1.76-1.925v0c-0.74-0.496-1.46-0.796-2.16-0.897-0.701-0.102-1.377-0.067-2.029 0.104-0.655 0.177-1.28 0.47-1.875 0.88-0.595 0.41-1.161 0.883-1.698 1.42-0.538 0.528-1.035 1.095-1.49 1.702-0.461 0.604-0.879 1.184-1.253 1.743v0l-3.012 4.489 6.933 4.652-1.778 2.651-6.934-4.652-3.779 5.633-6.386-4.285 7.902-11.779c1.13-1.684 2.448-3.07 3.955-4.158 1.506-1.087 3.11-1.837 4.812-2.249 1.693-0.41 3.433-0.456 5.221-0.137 1.784 0.324 3.522 1.053 5.212 2.187v0c1.149 0.771 2.116 1.656 2.902 2.657 0.786 1 1.398 2.063 1.836 3.189 0.443 1.13 0.723 2.307 0.839 3.53 0.126 1.221 0.091 2.443-0.105 3.666-0.19 1.226-0.522 2.437-0.995 3.632-0.47 1.19-1.074 2.311-1.811 3.362z" fill="#556970" data-fill-palette-color="primary"></path><path d="M251.553 60.7l-19.165 15.004-4.741-6.056 19.165-15.004-4.679-5.977 2.804-2.195 14.106 18.018-2.804 2.195z" fill="#556970" data-fill-palette-color="primary"></path><path d="M253.627 109.795l-3.294 1.354-7.611-18.528 25.807-10.602 7.612 18.527-3.294 1.353-4.689-11.413-7.982 3.279 3.624 8.821-3.275 1.345-3.624-8.82-7.963 3.271z" fill="#556970" data-fill-palette-color="primary"></path><path d="M3.413 143.024c0-6.029 4.888-10.917 10.918-10.917 6.029 0 10.917 4.888 10.917 10.917 0 6.029-4.888 10.917-10.917 10.917-6.029 0-10.917-4.888-10.917-10.917z" fill="#556970" data-fill-palette-color="primary"></path><path d="M254.54 143.024c0-6.029 4.888-10.917 10.917-10.917 6.029 0 10.917 4.888 10.917 10.917 0 6.029-4.888 10.917-10.917 10.917-6.029 0-10.917-4.888-10.917-10.917z" fill="#556970" data-fill-palette-color="primary"></path></g><g id="text-1"><path d="M32.205 184.761l-2.62-8.503-6.683 2.059 2.121 6.883-1.544 0.475-2.121-6.882-8.208 2.529-0.496-1.611 17.979-5.54 3.116 10.114z" fill="#556970" data-fill-palette-color="secondary"></path><path d="M24.426 200.541v0c-0.5 0.217-1.011 0.326-1.532 0.328-0.527 0.004-1.026-0.084-1.496-0.264-0.466-0.189-0.891-0.465-1.272-0.829-0.38-0.357-0.678-0.786-0.896-1.286v0l-0.425-0.979c-0.217-0.5-0.326-1.011-0.327-1.532-0.004-0.527 0.084-1.026 0.264-1.496 0.189-0.466 0.465-0.891 0.828-1.273 0.357-0.38 0.786-0.678 1.287-0.895v0l5.554-2.41c0.5-0.217 1.011-0.326 1.532-0.328 0.521-0.002 1.017 0.088 1.487 0.268 0.472 0.186 0.9 0.461 1.282 0.825 0.38 0.357 0.678 0.786 0.895 1.286v0l0.425 0.979c0.217 0.5 0.326 1.011 0.328 1.532 0.004 0.527-0.087 1.027-0.274 1.5-0.189 0.466-0.462 0.889-0.819 1.269-0.357 0.38-0.786 0.678-1.286 0.895v0zM23.696 199.108l5.728-2.486c0.299-0.13 0.554-0.309 0.766-0.539 0.209-0.221 0.368-0.471 0.479-0.751 0.113-0.274 0.168-0.566 0.164-0.876-0.004-0.31-0.071-0.614-0.201-0.914v0l-0.425-0.979c-0.13-0.299-0.306-0.556-0.53-0.77-0.224-0.215-0.474-0.374-0.751-0.479-0.28-0.11-0.572-0.165-0.876-0.163-0.31 0.004-0.614 0.071-0.913 0.2v0l-5.729 2.486c-0.293 0.127-0.547 0.302-0.761 0.526-0.215 0.224-0.374 0.474-0.478 0.752-0.113 0.274-0.168 0.566-0.164 0.875-0.002 0.313 0.062 0.618 0.191 0.918v0l0.425 0.979c0.13 0.299 0.309 0.554 0.539 0.766 0.224 0.215 0.474 0.374 0.752 0.479 0.274 0.113 0.566 0.168 0.875 0.163 0.313 0.002 0.615-0.06 0.909-0.187z" fill="#556970" data-fill-palette-color="secondary"></path><path d="M36.637 205.781l-0.775-1.406c-0.157-0.285-0.36-0.523-0.61-0.712-0.243-0.193-0.507-0.328-0.793-0.406-0.283-0.087-0.579-0.113-0.887-0.08-0.308 0.033-0.602 0.127-0.882 0.282v0l-8.376 4.621-0.78-1.415 11.764-6.491 0.261 0.472-0.773 1.428c0.613 0.079 1.183 0.293 1.709 0.641 0.523 0.342 0.943 0.801 1.262 1.378v0l0.453 0.821z" fill="#556970" data-fill-palette-color="secondary"></path><path d="M36.531 220.406v0c-0.453 0.304-0.936 0.503-1.449 0.598-0.518 0.099-1.024 0.102-1.519 0.009-0.493-0.102-0.96-0.298-1.401-0.586-0.438-0.283-0.808-0.651-1.112-1.104v0l-0.594-0.887c-0.304-0.453-0.503-0.936-0.598-1.448-0.099-0.518-0.102-1.024-0.009-1.519 0.102-0.493 0.298-0.96 0.586-1.401 0.283-0.438 0.651-0.808 1.104-1.112v0l5.03-3.371c0.453-0.304 0.936-0.503 1.449-0.598 0.513-0.095 1.016-0.096 1.51-0.003 0.498 0.098 0.968 0.292 1.41 0.58 0.438 0.283 0.808 0.651 1.112 1.104v0l0.594 0.887c0.304 0.453 0.503 0.936 0.598 1.448 0.099 0.518 0.099 1.026 0.001 1.525-0.102 0.493-0.295 0.958-0.578 1.395-0.283 0.438-0.651 0.808-1.104 1.112v0l-2.627 1.761-4.092-6.108-2.486 1.666c-0.265 0.178-0.483 0.396-0.655 0.654-0.171 0.259-0.283 0.534-0.335 0.825-0.062 0.29-0.063 0.587-0.004 0.891 0.054 0.308 0.172 0.597 0.354 0.868v0l0.594 0.887c0.181 0.271 0.404 0.49 0.668 0.657 0.259 0.171 0.534 0.283 0.825 0.335 0.29 0.062 0.587 0.063 0.891 0.004 0.308-0.054 0.594-0.17 0.86-0.348v0l0.746-0.5 0.67 1.484zM39.084 216.762l1.657-1.111c0.271-0.181 0.49-0.404 0.657-0.668 0.165-0.255 0.277-0.53 0.336-0.825 0.062-0.29 0.063-0.587 0.003-0.891-0.06-0.304-0.18-0.592-0.361-0.862v0l-0.594-0.887c-0.181-0.271-0.401-0.492-0.66-0.663-0.259-0.171-0.534-0.283-0.825-0.335-0.295-0.058-0.592-0.059-0.891-0.004-0.304 0.06-0.592 0.18-0.863 0.362v0l-1.657 1.11z" fill="#556970" data-fill-palette-color="secondary"></path><path d="M45.423 231.139v0c-0.418 0.351-0.876 0.601-1.375 0.751-0.504 0.154-1.007 0.212-1.509 0.173-0.501-0.048-0.986-0.192-1.456-0.431-0.466-0.234-0.874-0.56-1.225-0.977v0l-0.687-0.817c-0.351-0.418-0.601-0.876-0.751-1.376-0.154-0.504-0.212-1.007-0.173-1.509 0.048-0.501 0.192-0.986 0.431-1.456 0.234-0.466 0.56-0.874 0.977-1.225v0l4.637-3.894c0.418-0.351 0.876-0.601 1.375-0.752 0.499-0.15 1-0.206 1.501-0.166 0.506 0.044 0.994 0.186 1.464 0.424 0.466 0.234 0.874 0.56 1.225 0.978v0l0.686 0.817c0.351 0.418 0.601 0.876 0.752 1.375 0.154 0.504 0.21 1.009 0.165 1.516-0.048 0.501-0.189 0.984-0.423 1.45-0.234 0.466-0.56 0.874-0.978 1.224v0l-0.412 0.347-1.232-1.063 0.68-0.571c0.25-0.21 0.443-0.455 0.581-0.736 0.137-0.271 0.218-0.557 0.244-0.856 0.03-0.295-0.001-0.59-0.092-0.886-0.092-0.296-0.243-0.569-0.453-0.818v0l-0.687-0.818c-0.21-0.25-0.452-0.445-0.727-0.587-0.276-0.142-0.561-0.223-0.857-0.244-0.3-0.026-0.595 0.005-0.886 0.093-0.296 0.092-0.569 0.243-0.818 0.452v0l-4.782 4.017c-0.244 0.205-0.438 0.446-0.579 0.721-0.142 0.276-0.223 0.561-0.245 0.857-0.03 0.295 0.001 0.59 0.093 0.886 0.087 0.3 0.236 0.575 0.445 0.824v0l0.687 0.818c0.21 0.25 0.455 0.443 0.735 0.58 0.276 0.142 0.561 0.223 0.857 0.245 0.295 0.03 0.59-0.001 0.886-0.093 0.3-0.087 0.573-0.233 0.817-0.439v0l0.687-0.577 0.827 1.403z" fill="#556970" data-fill-palette-color="secondary"></path><path d="M52.873 243.512l-0.389-0.372 0.283-1.58c-0.595 0.093-1.193 0.054-1.794-0.116-0.601-0.17-1.139-0.483-1.615-0.938v0l-0.288-0.276c-0.394-0.377-0.692-0.806-0.896-1.286-0.208-0.485-0.32-0.978-0.335-1.481-0.006-0.503 0.084-1.001 0.27-1.495 0.182-0.488 0.462-0.93 0.839-1.323v0l0.09-0.094c0.373-0.389 0.801-0.688 1.286-0.896 0.48-0.203 0.972-0.313 1.474-0.328 0.508-0.011 1.008 0.077 1.502 0.263 0.488 0.182 0.93 0.462 1.323 0.839v0l2.464 2.36 1.428-1.492c0.225-0.235 0.391-0.5 0.498-0.794 0.107-0.285 0.157-0.577 0.15-0.878-0.002-0.296-0.065-0.587-0.188-0.871-0.124-0.284-0.303-0.539-0.539-0.764v0l-0.677-0.648c-0.235-0.225-0.498-0.394-0.787-0.505-0.285-0.107-0.577-0.157-0.878-0.151-0.301 0.007-0.591 0.069-0.871 0.189-0.284 0.124-0.539 0.303-0.764 0.538v0l-0.331 0.346-0.988-1.305 0.089-0.093c0.377-0.394 0.806-0.692 1.286-0.896 0.48-0.203 0.974-0.31 1.482-0.321 0.508-0.011 1.006 0.075 1.494 0.256 0.488 0.182 0.93 0.462 1.323 0.839v0l0.678 0.649c0.394 0.377 0.692 0.806 0.895 1.285 0.208 0.485 0.318 0.981 0.329 1.489 0.006 0.503-0.082 0.999-0.264 1.487-0.182 0.488-0.462 0.93-0.839 1.324v0zM54.197 239.808l2.014-2.104-2.464-2.359c-0.235-0.225-0.498-0.394-0.787-0.505-0.294-0.106-0.589-0.154-0.885-0.143-0.301 0.007-0.593 0.072-0.878 0.195-0.28 0.119-0.532 0.296-0.757 0.532v0l-0.393 0.41c-0.221 0.231-0.387 0.491-0.498 0.78-0.111 0.289-0.161 0.582-0.151 0.878 0.002 0.296 0.065 0.587 0.189 0.871 0.119 0.289 0.296 0.546 0.531 0.771v0l0.771 0.739c0.235 0.225 0.5 0.391 0.794 0.497 0.289 0.111 0.582 0.161 0.878 0.151 0.296-0.002 0.587-0.065 0.871-0.189 0.289-0.119 0.544-0.294 0.765-0.524z" fill="#556970" data-fill-palette-color="secondary"></path><path d="M66.475 249.791v0c-0.332 0.433-0.72 0.759-1.166 0.98-0.449 0.225-0.923 0.352-1.422 0.38-0.49 0.027-0.987-0.04-1.492-0.201-0.5-0.157-0.963-0.399-1.391-0.727v0l-0.855-0.656c-0.433-0.332-0.782-0.729-1.047-1.192-0.265-0.463-0.438-0.948-0.52-1.454-0.077-0.512-0.058-1.029 0.059-1.551 0.117-0.514 0.342-0.987 0.673-1.42v0l0.322-0.419 1.446 0.769-0.546 0.712c-0.194 0.253-0.326 0.534-0.394 0.842-0.068 0.308-0.076 0.612-0.022 0.914 0.055 0.31 0.163 0.602 0.322 0.875 0.161 0.282 0.37 0.523 0.629 0.721v0l0.855 0.655c0.253 0.194 0.529 0.343 0.827 0.446 0.294 0.108 0.588 0.162 0.883 0.161 0.289-0.005 0.565-0.065 0.829-0.181 0.259-0.12 0.488-0.309 0.687-0.567v0c0.291-0.38 0.448-0.754 0.47-1.123 0.017-0.372-0.049-0.745-0.197-1.119-0.149-0.374-0.355-0.75-0.619-1.128-0.273-0.377-0.551-0.757-0.834-1.142-0.284-0.394-0.551-0.795-0.799-1.203-0.243-0.404-0.415-0.825-0.516-1.263-0.1-0.437-0.103-0.888-0.007-1.35 0.094-0.473 0.335-0.962 0.723-1.469v0c0.328-0.427 0.714-0.756 1.158-0.986 0.439-0.233 0.898-0.368 1.377-0.402 0.483-0.04 0.969 0.014 1.459 0.163 0.484 0.145 0.942 0.383 1.375 0.715v0l0.752 0.576c0.427 0.328 0.769 0.719 1.023 1.174 0.26 0.459 0.423 0.94 0.489 1.444 0.067 0.503 0.036 1.008-0.091 1.513-0.133 0.501-0.365 0.968-0.697 1.401v0l-0.031 0.04-1.432-0.771 0.243-0.317c0.198-0.259 0.334-0.54 0.408-0.844 0.075-0.294 0.093-0.591 0.053-0.889-0.034-0.294-0.128-0.576-0.283-0.845-0.154-0.269-0.358-0.501-0.611-0.695v0l-0.752-0.576c-0.259-0.198-0.527-0.345-0.805-0.442-0.288-0.095-0.568-0.138-0.843-0.13-0.273 0.017-0.538 0.09-0.796 0.219-0.249 0.128-0.47 0.318-0.665 0.572v0c-0.283 0.369-0.432 0.733-0.446 1.09-0.009 0.362 0.063 0.727 0.216 1.096 0.149 0.374 0.357 0.747 0.625 1.12 0.273 0.377 0.547 0.763 0.821 1.158 0.275 0.395 0.532 0.798 0.772 1.207 0.24 0.419 0.411 0.847 0.511 1.284 0.091 0.439 0.09 0.894-0.004 1.367-0.094 0.473-0.335 0.962-0.724 1.468z" fill="#556970" data-fill-palette-color="secondary"></path><path d="M74.196 258.628l-1.257-0.774c-0.413-0.254-0.755-0.574-1.026-0.96-0.28-0.383-0.47-0.797-0.571-1.241-0.101-0.445-0.119-0.897-0.055-1.358 0.065-0.46 0.226-0.9 0.484-1.318v0l4.382-7.119-2.056-1.265 0.805-1.309 2.056 1.266 1.689-2.744 1.512 0.626-1.825 2.965 2.905 1.788-0.805 1.308-2.905-1.788-4.424 7.187c-0.143 0.232-0.231 0.471-0.265 0.715-0.037 0.251-0.029 0.498 0.024 0.741 0.062 0.241 0.166 0.466 0.313 0.673 0.152 0.21 0.341 0.385 0.567 0.525v0l1.257 0.773z" fill="#556970" data-fill-palette-color="secondary"></path><path d="M88.246 247.284l-1.656-0.88 1.011-1.903 1.656 0.881zM80.302 261.928l-1.418-0.754 6.308-11.864 1.418 0.754z" fill="#556970" data-fill-palette-color="secondary"></path><path d="M93.787 267.852l-1.478-0.628 3.849-9.051c0.128-0.3 0.189-0.606 0.185-0.919-0.001-0.304-0.058-0.595-0.17-0.874-0.106-0.277-0.268-0.526-0.484-0.748-0.216-0.222-0.474-0.397-0.775-0.525v0l-0.982-0.417c-0.3-0.128-0.605-0.192-0.915-0.194-0.31-0.002-0.601 0.055-0.874 0.17-0.279 0.113-0.528 0.274-0.748 0.484-0.222 0.216-0.397 0.474-0.524 0.774v0l-3.849 9.051-1.487-0.632 5.258-12.365 0.496 0.211 0.273 1.601c0.532-0.316 1.112-0.499 1.74-0.55 0.622-0.053 1.237 0.049 1.843 0.307v0l0.367 0.156c0.502 0.213 0.933 0.509 1.292 0.886 0.366 0.38 0.644 0.805 0.834 1.276 0.184 0.468 0.277 0.963 0.28 1.484 0.002 0.521-0.103 1.033-0.317 1.535v0z" fill="#556970" data-fill-palette-color="secondary"></path><path d="M107.124 273.764v0c-0.155 0.516-0.395 0.965-0.718 1.347-0.328 0.374-0.711 0.665-1.148 0.873-0.436 0.202-0.912 0.319-1.429 0.351-0.51 0.034-1.023-0.027-1.539-0.182v0l-0.64-0.193c-0.522-0.157-0.987-0.391-1.393-0.701-0.413-0.312-0.746-0.672-0.997-1.081-0.25-0.416-0.405-0.869-0.466-1.359-0.065-0.499-0.02-1.006 0.135-1.522v0l0.017-0.057c0.151-0.503 0.382-0.934 0.691-1.293 0.311-0.365 0.673-0.655 1.086-0.871v0c-0.335-0.365-0.558-0.789-0.669-1.274-0.117-0.487-0.1-0.982 0.051-1.485v0c0.136-0.452 0.361-0.843 0.676-1.171 0.308-0.331 0.667-0.567 1.078-0.707v0c-0.3-0.479-0.491-0.999-0.573-1.558-0.086-0.568-0.041-1.144 0.135-1.73v0l0.291-0.965c0.157-0.522 0.404-0.983 0.739-1.382 0.335-0.399 0.724-0.72 1.165-0.962 0.447-0.24 0.933-0.389 1.457-0.446 0.518-0.059 1.038-0.01 1.56 0.146v0l0.64 0.193c0.624 0.188 1.161 0.502 1.612 0.944 0.444 0.439 0.773 0.951 0.985 1.536v0l1.235-1.055 0.516 0.155-1.355 4.499c-0.157 0.522-0.404 0.983-0.739 1.381-0.335 0.399-0.727 0.719-1.174 0.96-0.447 0.24-0.93 0.39-1.448 0.449-0.524 0.057-1.044 0.009-1.56-0.147v0l-2.235-0.673c-0.178-0.054-0.358-0.069-0.538-0.047-0.18 0.022-0.349 0.075-0.507 0.16-0.155 0.078-0.293 0.19-0.413 0.334-0.112 0.14-0.194 0.299-0.248 0.477v0c-0.054 0.178-0.073 0.357-0.057 0.535 0.022 0.18 0.075 0.349 0.16 0.507 0.085 0.157 0.197 0.292 0.337 0.403 0.138 0.118 0.296 0.204 0.475 0.258v0l2.111 0.636c0.516 0.155 0.977 0.388 1.384 0.697 0.413 0.312 0.746 0.672 0.997 1.082 0.25 0.416 0.408 0.87 0.475 1.362 0.059 0.497 0.01 1.003-0.145 1.519v0zM108.702 263.437l0.343-1.137c0.094-0.312 0.125-0.622 0.092-0.931-0.04-0.304-0.132-0.588-0.274-0.853-0.142-0.265-0.333-0.496-0.573-0.693-0.239-0.197-0.512-0.342-0.817-0.434v0l-1.28-0.385c-0.312-0.094-0.622-0.125-0.93-0.093-0.308 0.032-0.592 0.12-0.851 0.265-0.265 0.142-0.495 0.33-0.69 0.563-0.197 0.239-0.343 0.515-0.437 0.827v0l-0.342 1.136c-0.094 0.312-0.125 0.622-0.093 0.931 0.034 0.302 0.122 0.585 0.265 0.851 0.136 0.263 0.324 0.493 0.563 0.69 0.239 0.197 0.515 0.343 0.827 0.436v0l1.28 0.386c0.306 0.092 0.613 0.122 0.921 0.09 0.308-0.032 0.595-0.119 0.86-0.262 0.265-0.142 0.498-0.329 0.7-0.56 0.197-0.239 0.343-0.515 0.436-0.827zM105.64 273.401l0.063-0.21c0.092-0.306 0.115-0.601 0.069-0.886-0.04-0.283-0.137-0.538-0.291-0.765-0.148-0.225-0.344-0.426-0.589-0.604-0.247-0.172-0.526-0.304-0.838-0.398v0l-0.783-0.236c-0.312-0.094-0.618-0.138-0.919-0.131-0.303 0.013-0.577 0.073-0.825 0.179-0.254 0.104-0.475 0.263-0.665 0.477-0.189 0.214-0.33 0.474-0.422 0.779v0l-0.063 0.21c-0.092 0.306-0.117 0.597-0.075 0.873 0.042 0.276 0.139 0.531 0.29 0.765 0.146 0.231 0.341 0.436 0.586 0.614 0.247 0.172 0.526 0.304 0.839 0.398v0l0.783 0.236c0.312 0.094 0.618 0.138 0.919 0.131 0.303-0.013 0.578-0.076 0.828-0.188 0.256-0.111 0.477-0.27 0.664-0.477 0.194-0.206 0.337-0.461 0.429-0.767z" fill="#556970" data-fill-palette-color="secondary"></path><path d="M133.089 264.155v0c-0.075 0.634-0.265 1.217-0.57 1.751-0.304 0.526-0.688 0.973-1.153 1.34-0.472 0.366-1 0.635-1.583 0.806-0.59 0.171-1.201 0.219-1.835 0.144v0l-4.239-0.503-0.853 7.181-1.674-0.198 2.218-18.682 5.913 0.702c0.634 0.075 1.217 0.265 1.751 0.569 0.526 0.304 0.976 0.692 1.348 1.165 0.367 0.465 0.636 0.993 0.807 1.582 0.172 0.583 0.22 1.191 0.145 1.825v0zM131.405 263.955l0.275-2.317c0.049-0.416 0.019-0.811-0.09-1.186-0.115-0.382-0.292-0.724-0.531-1.028-0.244-0.31-0.536-0.563-0.875-0.757-0.344-0.202-0.725-0.327-1.14-0.376v0l-4.161-0.494-0.985 8.301 4.16 0.494c0.416 0.049 0.815 0.016 1.197-0.099 0.375-0.116 0.717-0.29 1.027-0.521 0.303-0.239 0.555-0.53 0.756-0.875 0.194-0.339 0.316-0.719 0.367-1.142z" fill="#556970" data-fill-palette-color="secondary"></path><path d="M142.233 264.205l-1.606-0.027c-0.326-0.006-0.633 0.052-0.921 0.174-0.288 0.115-0.537 0.277-0.747 0.486-0.216 0.202-0.387 0.446-0.511 0.73-0.125 0.284-0.19 0.585-0.195 0.904v0l-0.163 9.565-1.615-0.028 0.228-13.434 0.539 0.009 0.854 1.381c0.374-0.492 0.843-0.88 1.407-1.163 0.557-0.283 1.164-0.419 1.823-0.408v0l0.937 0.016z" fill="#556970" data-fill-palette-color="secondary"></path><path d="M154.862 271.58v0c0.038 0.544-0.03 1.062-0.202 1.554-0.172 0.499-0.422 0.939-0.748 1.321-0.334 0.376-0.736 0.684-1.206 0.924-0.463 0.239-0.967 0.377-1.512 0.414v0l-1.064 0.074c-0.544 0.038-1.062-0.03-1.554-0.202-0.499-0.172-0.939-0.422-1.322-0.749-0.376-0.334-0.684-0.736-0.923-1.206-0.239-0.463-0.377-0.967-0.415-1.511v0l-0.418-6.04c-0.038-0.544 0.03-1.062 0.202-1.554 0.173-0.492 0.422-0.929 0.749-1.312 0.333-0.383 0.735-0.694 1.206-0.933 0.463-0.239 0.967-0.377 1.511-0.415v0l1.065-0.074c0.544-0.038 1.062 0.03 1.554 0.203 0.499 0.172 0.939 0.425 1.322 0.758 0.376 0.334 0.684 0.733 0.923 1.196 0.239 0.463 0.377 0.967 0.414 1.511v0zM153.267 271.79l-0.431-6.229c-0.022-0.325-0.107-0.626-0.253-0.903-0.139-0.27-0.322-0.504-0.548-0.702-0.22-0.198-0.477-0.347-0.771-0.446-0.294-0.1-0.603-0.138-0.928-0.116v0l-1.065 0.074c-0.325 0.022-0.626 0.103-0.903 0.242-0.277 0.139-0.511 0.322-0.702 0.549-0.198 0.227-0.346 0.484-0.446 0.771-0.1 0.294-0.138 0.603-0.116 0.927v0l0.431 6.23c0.022 0.318 0.103 0.616 0.242 0.893 0.139 0.277 0.322 0.511 0.548 0.702 0.22 0.198 0.477 0.347 0.771 0.447 0.294 0.106 0.604 0.148 0.929 0.125v0l1.065-0.073c0.325-0.022 0.626-0.107 0.902-0.253 0.277-0.139 0.511-0.322 0.702-0.548 0.198-0.22 0.347-0.477 0.447-0.771 0.106-0.294 0.148-0.6 0.126-0.919z" fill="#556970" data-fill-palette-color="secondary"></path><path d="M168.598 269.212v0c0.096 0.537 0.085 1.059-0.033 1.567-0.117 0.514-0.318 0.979-0.601 1.394-0.291 0.41-0.658 0.76-1.099 1.049-0.435 0.287-0.921 0.479-1.458 0.575v0l-0.392 0.071c-0.596 0.107-1.17 0.085-1.725-0.066-0.546-0.145-1.038-0.402-1.476-0.769v0l1.149 6.402-1.591 0.285-3.321-18.518 0.53-0.095 1.105 1.19c0.272-0.555 0.657-1.027 1.156-1.413 0.492-0.385 1.061-0.636 1.709-0.752v0l0.393-0.071c0.537-0.096 1.059-0.085 1.566 0.034 0.514 0.117 0.98 0.321 1.397 0.611 0.41 0.291 0.759 0.654 1.047 1.089 0.287 0.435 0.479 0.921 0.575 1.457v0zM167.035 269.594l-1.102-6.147c-0.058-0.321-0.174-0.611-0.349-0.87-0.167-0.254-0.374-0.467-0.621-0.638-0.24-0.173-0.512-0.293-0.815-0.361-0.303-0.067-0.614-0.072-0.935-0.014v0l-1.05 0.188c-0.321 0.058-0.611 0.17-0.872 0.339-0.26 0.168-0.473 0.375-0.639 0.621-0.172 0.247-0.292 0.519-0.36 0.815-0.067 0.303-0.072 0.614-0.015 0.935v0l1.102 6.146c0.056 0.314 0.169 0.601 0.337 0.862 0.168 0.26 0.375 0.473 0.622 0.638 0.24 0.173 0.512 0.293 0.814 0.361 0.304 0.074 0.616 0.082 0.937 0.024v0l1.051-0.188c0.321-0.058 0.611-0.174 0.869-0.349 0.26-0.168 0.473-0.375 0.639-0.621 0.173-0.24 0.293-0.512 0.361-0.814 0.074-0.304 0.083-0.613 0.026-0.927z" fill="#556970" data-fill-palette-color="secondary"></path><path d="M181.997 265.371v0c0.154 0.523 0.199 1.044 0.137 1.561-0.061 0.524-0.21 1.008-0.447 1.452-0.245 0.439-0.571 0.827-0.979 1.161-0.401 0.333-0.863 0.576-1.386 0.73v0l-1.024 0.301c-0.523 0.154-1.044 0.199-1.561 0.136-0.524-0.061-1.008-0.21-1.452-0.446-0.439-0.245-0.827-0.571-1.161-0.979-0.333-0.401-0.576-0.863-0.73-1.387v0l-1.708-5.809c-0.154-0.523-0.199-1.044-0.137-1.561 0.063-0.518 0.213-0.998 0.449-1.442 0.243-0.446 0.569-0.836 0.977-1.171 0.401-0.333 0.863-0.576 1.386-0.73v0l1.024-0.301c0.523-0.154 1.044-0.199 1.561-0.136 0.524 0.061 1.009 0.213 1.455 0.456 0.439 0.245 0.826 0.568 1.158 0.969 0.333 0.401 0.576 0.863 0.73 1.387v0l0.892 3.033-7.053 2.074 0.844 2.871c0.09 0.306 0.233 0.58 0.428 0.82 0.196 0.241 0.424 0.43 0.687 0.568 0.258 0.146 0.541 0.236 0.849 0.27 0.31 0.041 0.621 0.015 0.934-0.077v0l1.024-0.301c0.313-0.092 0.588-0.239 0.827-0.441 0.241-0.196 0.43-0.424 0.567-0.686 0.146-0.258 0.236-0.541 0.271-0.849 0.041-0.31 0.016-0.618-0.074-0.924v0l-0.254-0.862 1.617-0.194zM179.286 261.843l-0.563-1.914c-0.092-0.313-0.239-0.588-0.441-0.827-0.194-0.234-0.423-0.423-0.686-0.568-0.258-0.146-0.541-0.236-0.849-0.27-0.308-0.034-0.618-0.005-0.931 0.086v0l-1.024 0.302c-0.313 0.092-0.589 0.236-0.83 0.431-0.241 0.196-0.43 0.424-0.568 0.686-0.144 0.264-0.234 0.547-0.27 0.849-0.034 0.308-0.005 0.618 0.087 0.931v0l0.563 1.914z" fill="#556970" data-fill-palette-color="secondary"></path><path d="M188.699 253.896l-1.491 0.597c-0.302 0.121-0.563 0.294-0.782 0.518-0.221 0.217-0.388 0.463-0.5 0.737-0.121 0.27-0.184 0.561-0.188 0.871-0.005 0.31 0.052 0.613 0.171 0.909v0l3.556 8.881-1.5 0.6-4.995-12.473 0.5-0.2 1.323 0.942c0.154-0.599 0.436-1.138 0.846-1.617 0.404-0.477 0.911-0.838 1.522-1.083v0l0.87-0.348z" fill="#556970" data-fill-palette-color="secondary"></path><path d="M202.522 260.328l-1.322 0.657c-0.435 0.216-0.887 0.337-1.357 0.362-0.473 0.034-0.925-0.023-1.356-0.173-0.431-0.15-0.824-0.374-1.18-0.672-0.356-0.298-0.644-0.668-0.863-1.108v0l-3.72-7.486-2.161 1.074-0.684-1.376 2.162-1.074-1.434-2.886 1.332-0.951 1.549 3.118 3.055-1.518 0.684 1.376-3.055 1.518 3.755 7.557c0.121 0.244 0.277 0.445 0.467 0.604 0.193 0.164 0.407 0.288 0.641 0.371 0.238 0.075 0.483 0.105 0.736 0.091 0.259-0.017 0.507-0.085 0.745-0.203v0l1.322-0.657z" fill="#556970" data-fill-palette-color="secondary"></path><path d="M207.358 241.658l4.196 19.557-1.32 0.824-1.436-6.805-10.199-8.11 1.371-0.856 8.362 6.787 0.412 0.566-0.319-0.624-2.429-10.488z" fill="#556970" data-fill-palette-color="secondary"></path><path d="M225.468 231.432l6.487 7.473-0.407 0.353-1.726-0.497c0.042 0.677-0.054 1.328-0.286 1.953-0.233 0.625-0.62 1.172-1.163 1.643v0l-0.745 0.647c-0.482 0.419-1.015 0.723-1.599 0.913-0.579 0.185-1.164 0.257-1.755 0.215-0.596-0.037-1.168-0.189-1.714-0.453-0.551-0.27-1.036-0.646-1.455-1.128v0l-6.618-7.623c-0.419-0.482-0.72-1.013-0.906-1.592-0.19-0.584-0.261-1.173-0.214-1.768 0.042-0.591 0.195-1.16 0.46-1.707 0.27-0.551 0.646-1.036 1.128-1.455v0l1.009-0.876c0.482-0.419 1.015-0.723 1.599-0.913 0.579-0.185 1.164-0.257 1.755-0.215 0.591 0.042 1.162 0.198 1.713 0.467 0.547 0.265 1.03 0.638 1.448 1.121v0l0.497 0.572-1.103 1.301-0.667-0.768c-0.275-0.316-0.592-0.56-0.952-0.732-0.36-0.172-0.728-0.271-1.103-0.297-0.385-0.027-0.767 0.019-1.149 0.138-0.371 0.12-0.715 0.317-1.031 0.592v0l-0.897 0.778c-0.316 0.275-0.563 0.59-0.738 0.945-0.167 0.356-0.266 0.728-0.298 1.117-0.032 0.38 0.012 0.76 0.131 1.141 0.124 0.376 0.324 0.723 0.599 1.039v0l6.617 7.623c0.279 0.321 0.594 0.568 0.945 0.739 0.36 0.172 0.733 0.271 1.118 0.298 0.394 0.028 0.777-0.018 1.148-0.138 0.381-0.119 0.729-0.316 1.046-0.591v0l0.896-0.778c0.316-0.275 0.558-0.59 0.724-0.946 0.176-0.355 0.275-0.728 0.298-1.118 0.022-0.38-0.026-0.761-0.145-1.141-0.115-0.376-0.312-0.724-0.591-1.046v0l-2.57-2.961-2.267 1.969-1.06-1.221z" fill="#556970" data-fill-palette-color="secondary"></path><path d="M230.92 222.65l-1.095 1.175c-0.222 0.238-0.385 0.505-0.487 0.8-0.107 0.291-0.154 0.584-0.138 0.88 0.006 0.296 0.072 0.586 0.2 0.868 0.128 0.283 0.308 0.533 0.541 0.751v0l6.998 6.522-1.102 1.182-9.829-9.161 0.367-0.394 1.599 0.289c-0.115-0.608-0.09-1.216 0.077-1.823 0.162-0.603 0.468-1.146 0.916-1.628v0l0.64-0.685z" fill="#556970" data-fill-palette-color="secondary"></path><path d="M244.851 218.199v0c0.429 0.336 0.769 0.733 1.019 1.191 0.255 0.462 0.416 0.942 0.482 1.44 0.056 0.5 0.016 1.005-0.121 1.514-0.133 0.504-0.367 0.971-0.703 1.401v0l-0.658 0.84c-0.336 0.429-0.733 0.769-1.19 1.019-0.462 0.255-0.942 0.416-1.441 0.482-0.5 0.056-1.005 0.016-1.514-0.121-0.504-0.133-0.971-0.367-1.4-0.703v0l-4.769-3.731c-0.429-0.336-0.769-0.733-1.019-1.19-0.25-0.457-0.408-0.936-0.474-1.435-0.062-0.504-0.024-1.011 0.113-1.52 0.133-0.504 0.367-0.971 0.703-1.401v0l0.658-0.84c0.336-0.429 0.733-0.769 1.19-1.019 0.462-0.255 0.944-0.414 1.449-0.476 0.5-0.056 1.002-0.018 1.506 0.115 0.504 0.133 0.971 0.367 1.4 0.703v0zM243.94 219.526l-4.918-3.848c-0.257-0.201-0.536-0.34-0.84-0.417-0.294-0.078-0.59-0.099-0.888-0.062-0.295 0.031-0.577 0.123-0.848 0.274-0.27 0.151-0.506 0.355-0.707 0.612v0l-0.658 0.841c-0.201 0.257-0.342 0.534-0.424 0.833-0.082 0.299-0.103 0.595-0.062 0.889 0.036 0.299 0.128 0.581 0.274 0.848 0.151 0.27 0.355 0.506 0.612 0.707v0l4.918 3.848c0.251 0.197 0.527 0.336 0.826 0.418 0.299 0.082 0.595 0.103 0.888 0.062 0.295-0.031 0.577-0.123 0.848-0.274 0.276-0.147 0.514-0.349 0.715-0.606v0l0.658-0.841c0.201-0.257 0.34-0.536 0.416-0.839 0.082-0.299 0.103-0.595 0.062-0.889-0.031-0.295-0.123-0.577-0.274-0.848-0.147-0.276-0.347-0.512-0.598-0.708z" fill="#556970" data-fill-palette-color="secondary"></path><path d="M247.004 195.367l9.397 10.601-0.438 0.761-10.341-2.336-0.634-0.297 0.58 0.392 7.196 7.788-0.444 0.769-13.882-2.824 0.822-1.425 10.397 2.299 0.629 0.306-0.58-0.393-7.222-7.803 0.484-0.838 10.361 2.359 0.635 0.297-0.58-0.392-7.197-7.847z" fill="#556970" data-fill-palette-color="secondary"></path><path d="M262.871 192.562l-0.588 1.354c-0.193 0.445-0.462 0.829-0.805 1.152-0.34 0.331-0.722 0.578-1.148 0.741-0.426 0.163-0.871 0.245-1.336 0.246-0.465 0.001-0.923-0.096-1.374-0.292v0l-7.667-3.331-0.962 2.214-1.409-0.612 0.962-2.214-2.955-1.284 0.406-1.585 3.193 1.387 1.359-3.129 1.409 0.612-1.359 3.129 7.74 3.362c0.25 0.109 0.499 0.162 0.746 0.161 0.253 0.001 0.497-0.042 0.73-0.129 0.23-0.096 0.437-0.231 0.622-0.404 0.187-0.18 0.333-0.392 0.439-0.636v0l0.588-1.354z" fill="#556970" data-fill-palette-color="secondary"></path><path d="M267.369 179.354l-0.502 1.525-9.342-3.077c-0.309-0.102-0.62-0.138-0.931-0.107-0.303 0.026-0.588 0.107-0.857 0.243-0.267 0.129-0.502 0.311-0.705 0.545-0.203 0.234-0.356 0.506-0.458 0.815v0l-0.333 1.014c-0.102 0.309-0.141 0.619-0.117 0.928 0.024 0.309 0.105 0.595 0.243 0.857 0.136 0.269 0.317 0.504 0.545 0.705 0.234 0.203 0.506 0.356 0.815 0.457v0l9.342 3.078-0.506 1.535-17.868-5.887 0.505-1.534 6.178 2.034c-0.296-0.483-0.481-1.006-0.555-1.569-0.071-0.57-0.012-1.142 0.177-1.716v0l0.125-0.379c0.171-0.518 0.429-0.972 0.774-1.362 0.348-0.397 0.748-0.709 1.202-0.938 0.451-0.222 0.937-0.357 1.456-0.403 0.519-0.046 1.038 0.016 1.556 0.187v0z" fill="#556970" data-fill-palette-color="secondary"></path></g></svg></g></svg></g></svg></g><g></g></svg></g><defs></defs></svg><rect width="279.72" height="279.72" fill="none" stroke="none" visibility="hidden"></rect></g></svg></g></svg>